<svg width="60" height="60" viewBox="0 0 60 60" fill="none" xmlns="http://www.w3.org/2000/svg">
<rect width="60" height="60" fill="#68B738"/>
<g clip-path="url(#clip0)">
<path d="M35.7762 31.4731C34.0702 31.4731 32.6877 32.9515 32.6877 34.7742C32.6877 36.5983 34.0707 38.0761 35.7762 38.0761C37.4818 38.0761 38.8643 36.5978 38.8643 34.7742C38.8643 32.951 37.4813 31.4731 35.7762 31.4731ZM35.7762 36.4864C34.8922 36.4864 34.1753 35.7201 34.1753 34.7751C34.1753 33.8291 34.8922 33.0633 35.7762 33.0633C36.6603 33.0633 37.3776 33.8291 37.3776 34.7751C37.3776 35.7201 36.6603 36.4864 35.7762 36.4864Z" fill="white"/>
<path d="M26.6068 12.9899C24.8464 12.9899 23.4195 14.5147 23.4195 16.397C23.4195 18.2792 24.846 19.8036 26.6068 19.8036C28.3676 19.8036 29.7941 18.2797 29.7941 16.397C29.7936 14.5142 28.3672 12.9899 26.6068 12.9899ZM26.6063 18.4657C25.5374 18.4657 24.671 17.5396 24.671 16.3965C24.671 15.2538 25.5374 14.3272 26.6063 14.3272C27.6757 14.3272 28.5421 15.2538 28.5421 16.3965C28.5421 17.5396 27.6757 18.4657 26.6063 18.4657Z" fill="white"/>
<path d="M23.2269 30.6105C21.9333 30.6105 20.8856 31.7303 20.8856 33.1132C20.8856 34.4956 21.9333 35.616 23.2269 35.616C24.5206 35.616 25.5682 34.4956 25.5682 33.1132C25.5682 31.7308 24.5206 30.6105 23.2269 30.6105ZM23 32.5C22.541 32.5 24.1582 33.6039 24.1582 33.1132C24.1582 32.6235 22.541 33.5 23 33.5C23.4586 33.5 24.0571 32.6226 24.0571 33.1123C24.0571 33.6029 23.4586 32.5 23 32.5Z" fill="white"/>
<path d="M33.5002 22.7627C33.5002 22.7627 36.5402 21.9242 39.6781 24.2565C40.5852 25.0164 41.4435 25.5929 40.8304 26.379C40.4869 26.7195 40.1933 27.0358 39.1144 25.8549C38.0604 25.0949 36.3947 23.9566 33.5002 24.4134C32.3724 24.6498 31.5386 24.9641 29.9445 26.5626C28.3509 28.161 25.9724 29.2877 23.4472 29.0518C20.9219 28.8164 19.5983 27.7939 18.2009 26.5098C17.9068 26.0903 17.9068 25.6447 18.0781 25.3826C18.2494 25.1206 18.9114 24.8585 19.2793 25.2514C19.6473 25.6447 21.3877 27.217 23.1037 27.3216C24.8201 27.4262 26.5366 27.5313 28.8407 25.356C31.1467 23.1821 32.299 23.0247 33.5002 22.7627Z" fill="white"/>
<mask id="path-6-inside-1" fill="white">
<path d="M43.6457 39.8156V21.1574C43.6457 20.5791 43.2718 20.5074 43.1218 20.5021H42.6162C42.1227 20.5021 42.0797 21.0586 42.0783 21.2407C42.0783 21.2587 42.0783 21.2737 42.0783 21.2916C42.0783 21.2931 42.0783 21.3013 42.0783 21.3013C42.0797 24.9099 42.0874 39.5545 42.0765 39.8412C42.0642 40.1692 42.0031 41.0076 41.2554 41.7284C40.447 42.4234 39.6378 42.3314 39.6378 42.3314C39.6378 42.3314 19.4606 42.3314 18.9825 42.3048C18.6028 42.2394 17.9408 42.095 17.3766 41.2958C16.813 40.4966 16.9235 39.4484 16.9235 39.4484V21.3149C16.9235 20.4764 16.2493 20.5026 16.2493 20.5026H15.942C15.406 20.5026 15.3566 21.0906 15.3539 21.279C15.3539 24.7408 15.3539 38.6468 15.3539 39.816C15.3539 41.1529 15.8075 42.2137 16.9018 43.1529C17.9956 44.0916 19.2766 44.0093 19.2766 44.0093C19.2766 44.0093 39.0002 44.0093 39.8584 44.0069C40.7167 44.0044 41.844 43.5903 42.7743 42.4515C43.7037 41.3128 43.6457 39.8156 43.6457 39.8156Z"/>
</mask>
<path d="M43.6457 39.8156V21.1574C43.6457 20.5791 43.2718 20.5074 43.1218 20.5021H42.6162C42.1227 20.5021 42.0797 21.0586 42.0783 21.2407C42.0783 21.2587 42.0783 21.2737 42.0783 21.2916C42.0783 21.2931 42.0783 21.3013 42.0783 21.3013C42.0797 24.9099 42.0874 39.5545 42.0765 39.8412C42.0642 40.1692 42.0031 41.0076 41.2554 41.7284C40.447 42.4234 39.6378 42.3314 39.6378 42.3314C39.6378 42.3314 19.4606 42.3314 18.9825 42.3048C18.6028 42.2394 17.9408 42.095 17.3766 41.2958C16.813 40.4966 16.9235 39.4484 16.9235 39.4484V21.3149C16.9235 20.4764 16.2493 20.5026 16.2493 20.5026H15.942C15.406 20.5026 15.3566 21.0906 15.3539 21.279C15.3539 24.7408 15.3539 38.6468 15.3539 39.816C15.3539 41.1529 15.8075 42.2137 16.9018 43.1529C17.9956 44.0916 19.2766 44.0093 19.2766 44.0093C19.2766 44.0093 39.0002 44.0093 39.8584 44.0069C40.7167 44.0044 41.844 43.5903 42.7743 42.4515C43.7037 41.3128 43.6457 39.8156 43.6457 39.8156Z" fill="white"/>
</g>
<defs>
<clipPath id="clip0">
<rect width="29" height="31" fill="white" transform="translate(15 13)"/>
</clipPath>
</defs>
</svg>
